<svg width="304" height="307" viewBox="0 0 304 307" fill="none" xmlns="http://www.w3.org/2000/svg">
<path fill-rule="evenodd" clip-rule="evenodd" d="M114.575 13.5518C125.226 4.22491 138.621 0 150.111 0H209.871V59.3358C209.871 76.0521 202.069 89.8997 191.534 99.3761C181.143 108.722 167.461 114.408 154.379 114.408H59.7598C45.4509 114.408 36.2205 120.146 30.3307 127.533C24.1551 135.278 21.3428 145.293 21.3428 153.491V189.43C28.7309 189.607 40.3389 189.642 59.4157 189.027C68.6552 188.73 75.0077 186.324 79.5388 183.12C90.1721 175.601 94.6196 163.44 94.6196 149.228C95.6868 140.345 98.5325 137.858 104.224 133.95C109.915 130.041 115.962 128.975 115.962 128.975C115.962 141.124 116.753 162.349 109.514 178.463C105.806 186.715 100.23 194.609 91.8703 200.52C83.4624 206.465 72.9186 209.922 60.1038 210.334C30.3292 211.294 18.0654 210.705 11.8775 210.408C11.2652 210.378 10.7123 210.352 10.2079 210.33L0 209.887V153.491C0 141.083 4.08852 126.226 13.6354 114.252C23.4682 101.92 38.7819 93.0897 59.7598 93.0897H96.0425V57.204C96.0425 37.7136 103.633 23.1334 114.575 13.5518ZM117.385 93.0897H154.379C161.574 93.0897 170.301 89.7864 177.252 83.5344C184.057 77.413 188.528 69.0541 188.528 59.3358V21.3182H150.111C143.46 21.3182 135.156 23.8796 128.644 29.5821C122.423 35.0298 117.385 43.7221 117.385 57.204V93.0897Z" fill="#49FE79"/>
<path d="M117.5 93.0562H96.0255V68.3073H117.5V93.0562Z" fill="url(#paint0_linear_1362_921)" style="mix-blend-mode:multiply"/>
<path d="M209.871 -8.01086e-05L188.587 21.284V60.3872H209.871V-8.01086e-05Z" fill="url(#paint1_linear_1362_921)" style="mix-blend-mode:multiply"/>
<path d="M-3.22725e-07 209.87L21.284 189.576L21.284 151.463L-2.16362e-07 153.938L-3.22725e-07 209.87Z" fill="url(#paint2_linear_1362_921)" style="mix-blend-mode:multiply"/>
<path fill-rule="evenodd" clip-rule="evenodd" d="M189.342 293.334C178.691 302.661 165.296 306.886 153.806 306.886H94.0458V247.55C94.0458 230.834 101.847 216.987 112.383 207.51C122.773 198.164 136.456 192.478 149.537 192.478H244.157C258.465 192.478 267.696 186.741 273.586 179.354C279.761 171.608 282.574 161.594 282.574 153.395V117.456C275.185 117.279 263.577 117.244 244.501 117.859C235.261 118.157 228.909 120.562 224.378 123.766C213.744 131.285 209.297 143.446 209.297 157.658C208.23 166.541 205.384 169.028 199.693 172.937C194.001 176.845 187.954 177.911 187.954 177.911C187.954 165.762 187.164 144.538 194.403 128.423C198.11 120.171 203.687 112.277 212.046 106.367C220.454 100.421 230.998 96.9646 243.813 96.5517C273.587 95.5924 285.851 96.1813 292.039 96.4784C292.651 96.5078 293.204 96.5343 293.709 96.5563L303.916 96.9996V153.395C303.916 165.804 299.828 180.66 290.281 192.634C280.448 204.967 265.135 213.797 244.157 213.797H207.874V249.682C207.874 269.173 200.284 283.753 189.342 293.334ZM186.531 213.797H149.537C142.343 213.797 133.615 217.1 126.665 223.352C119.859 229.473 115.389 237.832 115.389 247.55V285.568H153.806C160.457 285.568 168.76 283.007 175.272 277.304C181.493 271.856 186.531 263.164 186.531 249.682V213.797Z" fill="#49FE79"/>
<path d="M186.5 213.831H207.891V238.579H186.5V213.831Z" fill="url(#paint3_linear_1362_921)" style="mix-blend-mode:multiply"/>
<path d="M94.0455 306.886L115.33 285.602V246.499H94.0455V306.886Z" fill="url(#paint4_linear_1362_921)" style="mix-blend-mode:multiply"/>
<path d="M303.916 97.0155L282.632 117.31L282.632 155.423L303.916 152.948L303.916 97.0155Z" fill="url(#paint5_linear_1362_921)" style="mix-blend-mode:multiply"/>
<defs>
<linearGradient id="paint0_linear_1362_921" x1="106.915" y1="93.0562" x2="106.915" y2="68.3073" gradientUnits="userSpaceOnUse">
<stop stop-color="#A2A2A2"/>
<stop offset="1" stop-color="#BABABA" stop-opacity="0"/>
</linearGradient>
<linearGradient id="paint1_linear_1362_921" x1="197.001" y1="16.3342" x2="198.981" y2="53.9525" gradientUnits="userSpaceOnUse">
<stop stop-color="#D9D9D9"/>
<stop offset="1" stop-color="#D9D9D9" stop-opacity="0"/>
</linearGradient>
<linearGradient id="paint2_linear_1362_921" x1="12.3744" y1="193.536" x2="10.3945" y2="155.918" gradientUnits="userSpaceOnUse">
<stop stop-color="#D9D9D9"/>
<stop offset="1" stop-color="#D9D9D9" stop-opacity="0"/>
</linearGradient>
<linearGradient id="paint3_linear_1362_921" x1="197.001" y1="213.831" x2="197.001" y2="238.579" gradientUnits="userSpaceOnUse">
<stop stop-color="#A2A2A2"/>
<stop offset="1" stop-color="#C4C4C4" stop-opacity="0"/>
</linearGradient>
<linearGradient id="paint4_linear_1362_921" x1="106.915" y1="290.552" x2="104.935" y2="252.934" gradientUnits="userSpaceOnUse">
<stop stop-color="#D9D9D9"/>
<stop offset="1" stop-color="#D9D9D9" stop-opacity="0"/>
</linearGradient>
<linearGradient id="paint5_linear_1362_921" x1="291.542" y1="113.35" x2="293.522" y2="150.968" gradientUnits="userSpaceOnUse">
<stop stop-color="#D9D9D9"/>
<stop offset="1" stop-color="#D9D9D9" stop-opacity="0"/>
</linearGradient>
</defs>
</svg>
