<svg width="86" height="22" viewBox="0 0 86 22" fill="none" xmlns="http://www.w3.org/2000/svg">
<path d="M20.6133 21.2681V20.7906L30.8856 3.70383H21.3367V0.434042H36.9188V0.925958L26.7043 17.9838H36.6729V21.2681H20.6133Z" fill="#111111"/>
<path d="M40.0898 21.2681V0.434042H43.5766V21.2681H40.0898Z" fill="#111111"/>
<path d="M56.1428 21.7021C54.0594 21.7021 52.275 21.2488 50.7896 20.3421C49.3042 19.4258 48.1613 18.1526 47.3607 16.5226C46.5698 14.8925 46.1743 13.002 46.1743 10.8511C46.1743 8.70014 46.5698 6.80965 47.3607 5.17957C48.1613 3.5495 49.3042 2.28113 50.7896 1.37447C52.275 0.458156 54.0594 0 56.1428 0C58.2262 0 60.0106 0.458156 61.496 1.37447C62.9911 2.28113 64.134 3.5495 64.925 5.17957C65.7255 6.80965 66.1258 8.70014 66.1258 10.8511C66.1258 13.002 65.7255 14.8925 64.925 16.5226C64.134 18.1526 62.9911 19.4258 61.496 20.3421C60.0106 21.2488 58.2262 21.7021 56.1428 21.7021ZM56.1428 18.4179C57.5414 18.4275 58.7037 18.1189 59.6296 17.4919C60.5652 16.865 61.2645 15.9824 61.7275 14.8443C62.2001 13.7061 62.4365 12.375 62.4365 10.8511C62.4365 9.32709 62.2001 8.00567 61.7275 6.88681C61.2645 5.7583 60.5652 4.88057 59.6296 4.25362C58.7037 3.62667 57.5414 3.30355 56.1428 3.28426C54.7442 3.27461 53.582 3.58326 52.656 4.21021C51.7301 4.83716 51.0308 5.71972 50.5581 6.85787C50.0952 7.99603 49.8637 9.32709 49.8637 10.8511C49.8637 12.375 50.0952 13.7013 50.5581 14.8298C51.0211 15.9487 51.7156 16.8216 52.6416 17.4485C53.5772 18.0755 54.7442 18.3986 56.1428 18.4179Z" fill="#111111"/>
<path d="M68.4269 21.2681V0.434042H71.9571L81.6218 15.1192V0.434042H85.152V21.2681H81.6218L71.9571 6.58298V21.2681H68.4269Z" fill="#111111"/>
<path fill-rule="evenodd" clip-rule="evenodd" d="M9.06815 10.9719L4.99242 5.41076C4.84673 5.21197 4.93817 4.92887 5.17262 4.85287L16.8941 1.05308C17.238 0.941591 17.5147 1.34797 17.2849 1.62707L9.63878 10.9132L13.9773 16.5101C14.1326 16.7106 14.0389 17.0044 13.7962 17.0779L1.4097 20.8281C1.06264 20.9332 0.794064 20.5191 1.03155 20.245L9.06815 10.9719Z" fill="#111111"/>
</svg>
